<svg width="3915" height="1717" xmlns="http://www.w3.org/2000/svg" xmlns:xlink="http://www.w3.org/1999/xlink" xml:space="preserve" overflow="hidden"><g transform="translate(-220 -551)"><rect x="1504.5" y="2048.5" width="2628" height="217" stroke="#392342" stroke-width="4.58333" stroke-miterlimit="8" fill="#8F5DA2"/><text fill="#FFFFFF" font-family="IntelOne Text Light,IntelOne Text Light_MSFontService,sans-serif" font-weight="300" font-size="83" transform="matrix(1 0 0 1 2430.23 2183)">OpenVINO Runtime</text><rect x="2366.5" y="1321.5" width="1546" height="218" stroke="#00284A" stroke-width="4.58333" stroke-miterlimit="8" fill="#0068B5"/><text fill="#FFFFFF" font-family="IntelOne Text Light,IntelOne Text Light_MSFontService,sans-serif" font-weight="300" font-size="83" transform="matrix(1 0 0 1 2690.58 1456)">Black</text><text fill="#FFFFFF" font-family="IntelOne Text Light,IntelOne Text Light_MSFontService,sans-serif" font-weight="300" font-size="83" transform="matrix(1 0 0 1 2897.4 1456)">-</text><text fill="#FFFFFF" font-family="IntelOne Text Light,IntelOne Text Light_MSFontService,sans-serif" font-weight="300" font-size="83" transform="matrix(1 0 0 1 2926.62 1456)">Box XAI Methods</text><rect x="566.5" y="1794.5" width="1766" height="217" stroke="#00284A" stroke-width="4.58333" stroke-miterlimit="8" fill="#0068B5"/><text fill="#FFFFFF" font-family="IntelOne Text Light,IntelOne Text Light_MSFontService,sans-serif" font-weight="300" font-size="83" transform="matrix(1 0 0 1 1058.59 1929)">XAI Branch </text><text fill="#FFFFFF" font-family="IntelOne Text Light,IntelOne Text Light_MSFontService,sans-serif" font-weight="300" font-size="83" transform="matrix(1 0 0 1 1506.61 1929)">Insertion</text><rect x="566.5" y="1321.5" width="1546" height="218" stroke="#00284A" stroke-width="4.58333" stroke-miterlimit="8" fill="#0068B5"/><text fill="#FFFFFF" font-family="IntelOne Text Light,IntelOne Text Light_MSFontService,sans-serif" font-weight="300" font-size="83" transform="matrix(1 0 0 1 879.845 1456)">White</text><text fill="#FFFFFF" font-family="IntelOne Text Light,IntelOne Text Light_MSFontService,sans-serif" font-weight="300" font-size="83" transform="matrix(1 0 0 1 1107.87 1456)">-</text><text fill="#FFFFFF" font-family="IntelOne Text Light,IntelOne Text Light_MSFontService,sans-serif" font-weight="300" font-size="83" transform="matrix(1 0 0 1 1137.08 1456)">Box XAI Methods</text><rect x="566.5" y="1183.5" width="1766" height="134" stroke="#00536B" stroke-width="4.58333" stroke-miterlimit="8" fill="#00C7FD"/><text fill="#FFFFFF" font-family="IntelOne Text Light,IntelOne Text Light_MSFontService,sans-serif" font-weight="300" font-size="83" transform="matrix(1 0 0 1 907.918 1277)">White</text><text fill="#FFFFFF" font-family="IntelOne Text Light,IntelOne Text Light_MSFontService,sans-serif" font-weight="300" font-size="83" transform="matrix(1 0 0 1 1135.94 1277)">-</text><text fill="#FFFFFF" font-family="IntelOne Text Light,IntelOne Text Light_MSFontService,sans-serif" font-weight="300" font-size="83" transform="matrix(1 0 0 1 1165.16 1277)">Box XAI Method Base</text><rect x="2366.5" y="1183.5" width="1766" height="134" stroke="#00536B" stroke-width="4.58333" stroke-miterlimit="8" fill="#00C7FD"/><text fill="#FFFFFF" font-family="IntelOne Text Light,IntelOne Text Light_MSFontService,sans-serif" font-weight="300" font-size="83" transform="matrix(1 0 0 1 2718.65 1277)">Black</text><text fill="#FFFFFF" font-family="IntelOne Text Light,IntelOne Text Light_MSFontService,sans-serif" font-weight="300" font-size="83" transform="matrix(1 0 0 1 2925.48 1277)">-</text><text fill="#FFFFFF" font-family="IntelOne Text Light,IntelOne Text Light_MSFontService,sans-serif" font-weight="300" font-size="83" transform="matrix(1 0 0 1 2954.69 1277)">Box XAI Method Base</text><rect x="566.5" y="1003.5" width="3566" height="135" stroke="#0068B5" stroke-width="4.58333" stroke-miterlimit="8" fill="#FFFFFF"/><text fill="#525252" font-family="IntelOne Text Light,IntelOne Text Light_MSFontService,sans-serif" font-weight="300" font-size="83" transform="matrix(1 0 0 1 1749.26 1097)">XAI Method Interface &amp; Factory</text><rect x="566.5" y="741.5" width="3566" height="217" stroke="#00284A" stroke-width="4.58333" stroke-miterlimit="8" fill="#0068B5"/><text fill="#FFFFFF" font-family="IntelOne Text Light,IntelOne Text Light_MSFontService,sans-serif" font-weight="300" font-size="83" transform="matrix(1 0 0 1 1867.57 876)">Explainer (Stateful Class)</text><rect x="566.5" y="558.5" width="1766" height="136" stroke="#0068B5" stroke-width="4.58333" stroke-miterlimit="8" fill="#FFFFFF"/><text fill="#525252" font-family="IntelOne Text Light,IntelOne Text Light_MSFontService,sans-serif" font-weight="300" font-size="83" transform="matrix(1 0 0 1 744.636 652)">API (Easy</text><text fill="#525252" font-family="IntelOne Text Light,IntelOne Text Light_MSFontService,sans-serif" font-weight="300" font-size="83" transform="matrix(1 0 0 1 1118.75 652)">-</text><text fill="#525252" font-family="IntelOne Text Light,IntelOne Text Light_MSFontService,sans-serif" font-weight="300" font-size="83" transform="matrix(1 0 0 1 1147.97 652)">to</text><text fill="#525252" font-family="IntelOne Text Light,IntelOne Text Light_MSFontService,sans-serif" font-weight="300" font-size="83" transform="matrix(1 0 0 1 1227.03 652)">-</text><text fill="#525252" font-family="IntelOne Text Light,IntelOne Text Light_MSFontService,sans-serif" font-weight="300" font-size="83" transform="matrix(1 0 0 1 1256.25 652)">use Stateless Function)</text><rect x="2366.5" y="558.5" width="1766" height="136" stroke="#0068B5" stroke-width="4.58333" stroke-miterlimit="8" stroke-dasharray="18.3333 13.75" fill="#FFFFFF"/><text fill="#525252" font-family="IntelOne Text Light,IntelOne Text Light_MSFontService,sans-serif" font-weight="300" font-size="83" transform="matrix(1 0 0 1 3049.22 652)">CLI (TBD)</text><rect x="2421.5" y="1376.5" width="1546" height="218" stroke="#00284A" stroke-width="4.58333" stroke-miterlimit="8" fill="#0068B5"/><text fill="#FFFFFF" font-family="IntelOne Text Light,IntelOne Text Light_MSFontService,sans-serif" font-weight="300" font-size="83" transform="matrix(1 0 0 1 2745.58 1511)">Black</text><text fill="#FFFFFF" font-family="IntelOne Text Light,IntelOne Text Light_MSFontService,sans-serif" font-weight="300" font-size="83" transform="matrix(1 0 0 1 2952.4 1511)">-</text><text fill="#FFFFFF" font-family="IntelOne Text Light,IntelOne Text Light_MSFontService,sans-serif" font-weight="300" font-size="83" transform="matrix(1 0 0 1 2981.62 1511)">Box XAI Methods</text><rect x="621.5" y="1376.5" width="1546" height="218" stroke="#00284A" stroke-width="4.58333" stroke-miterlimit="8" fill="#0068B5"/><text fill="#FFFFFF" font-family="IntelOne Text Light,IntelOne Text Light_MSFontService,sans-serif" font-weight="300" font-size="83" transform="matrix(1 0 0 1 934.845 1511)">White</text><text fill="#FFFFFF" font-family="IntelOne Text Light,IntelOne Text Light_MSFontService,sans-serif" font-weight="300" font-size="83" transform="matrix(1 0 0 1 1162.87 1511)">-</text><text fill="#FFFFFF" font-family="IntelOne Text Light,IntelOne Text Light_MSFontService,sans-serif" font-weight="300" font-size="83" transform="matrix(1 0 0 1 1192.08 1511)">Box XAI Methods</text><rect x="2476.5" y="1431.5" width="1546" height="218" stroke="#00284A" stroke-width="4.58333" stroke-miterlimit="8" fill="#0068B5"/><text fill="#FFFFFF" font-family="IntelOne Text Light,IntelOne Text Light_MSFontService,sans-serif" font-weight="300" font-size="83" transform="matrix(1 0 0 1 2800.58 1566)">Black</text><text fill="#FFFFFF" font-family="IntelOne Text Light,IntelOne Text Light_MSFontService,sans-serif" font-weight="300" font-size="83" transform="matrix(1 0 0 1 3007.4 1566)">-</text><text fill="#FFFFFF" font-family="IntelOne Text Light,IntelOne Text Light_MSFontService,sans-serif" font-weight="300" font-size="83" transform="matrix(1 0 0 1 3036.62 1566)">Box XAI Methods</text><rect x="676.5" y="1431.5" width="1546" height="218" stroke="#00284A" stroke-width="4.58333" stroke-miterlimit="8" fill="#0068B5"/><text fill="#FFFFFF" font-family="IntelOne Text Light,IntelOne Text Light_MSFontService,sans-serif" font-weight="300" font-size="83" transform="matrix(1 0 0 1 989.845 1566)">White</text><text fill="#FFFFFF" font-family="IntelOne Text Light,IntelOne Text Light_MSFontService,sans-serif" font-weight="300" font-size="83" transform="matrix(1 0 0 1 1217.87 1566)">-</text><text fill="#FFFFFF" font-family="IntelOne Text Light,IntelOne Text Light_MSFontService,sans-serif" font-weight="300" font-size="83" transform="matrix(1 0 0 1 1247.08 1566)">Box XAI Methods</text><rect x="2531.5" y="1486.5" width="1546" height="218" stroke="#00284A" stroke-width="4.58333" stroke-miterlimit="8" fill="#0068B5"/><text fill="#FFFFFF" font-family="IntelOne Text Light,IntelOne Text Light_MSFontService,sans-serif" font-weight="300" font-size="83" transform="matrix(1 0 0 1 2855.58 1621)">Black</text><text fill="#FFFFFF" font-family="IntelOne Text Light,IntelOne Text Light_MSFontService,sans-serif" font-weight="300" font-size="83" transform="matrix(1 0 0 1 3062.4 1621)">-</text><text fill="#FFFFFF" font-family="IntelOne Text Light,IntelOne Text Light_MSFontService,sans-serif" font-weight="300" font-size="83" transform="matrix(1 0 0 1 3091.62 1621)">Box XAI Methods</text><rect x="731.5" y="1486.5" width="1546" height="218" stroke="#00284A" stroke-width="4.58333" stroke-miterlimit="8" fill="#0068B5"/><text fill="#FFFFFF" font-family="IntelOne Text Light,IntelOne Text Light_MSFontService,sans-serif" font-weight="300" font-size="83" transform="matrix(1 0 0 1 1044.84 1621)">White</text><text fill="#FFFFFF" font-family="IntelOne Text Light,IntelOne Text Light_MSFontService,sans-serif" font-weight="300" font-size="83" transform="matrix(1 0 0 1 1272.87 1621)">-</text><text fill="#FFFFFF" font-family="IntelOne Text Light,IntelOne Text Light_MSFontService,sans-serif" font-weight="300" font-size="83" transform="matrix(1 0 0 1 1302.08 1621)">Box XAI Methods</text><rect x="2586.5" y="1541.5" width="1546" height="218" stroke="#00284A" stroke-width="4.58333" stroke-miterlimit="8" fill="#0068B5"/><text fill="#FFFFFF" font-family="IntelOne Text Light,IntelOne Text Light_MSFontService,sans-serif" font-weight="300" font-size="83" transform="matrix(1 0 0 1 2910.58 1676)">Black</text><text fill="#FFFFFF" font-family="IntelOne Text Light,IntelOne Text Light_MSFontService,sans-serif" font-weight="300" font-size="83" transform="matrix(1 0 0 1 3117.4 1676)">-</text><text fill="#FFFFFF" font-family="IntelOne Text Light,IntelOne Text Light_MSFontService,sans-serif" font-weight="300" font-size="83" transform="matrix(1 0 0 1 3146.62 1676)">Box XAI Methods</text><rect x="786.5" y="1541.5" width="1546" height="218" stroke="#00284A" stroke-width="4.58333" stroke-miterlimit="8" fill="#0068B5"/><text fill="#FFFFFF" font-family="IntelOne Text Light,IntelOne Text Light_MSFontService,sans-serif" font-weight="300" font-size="83" transform="matrix(1 0 0 1 1099.84 1676)">White</text><text fill="#FFFFFF" font-family="IntelOne Text Light,IntelOne Text Light_MSFontService,sans-serif" font-weight="300" font-size="83" transform="matrix(1 0 0 1 1327.87 1676)">-</text><text fill="#FFFFFF" font-family="IntelOne Text Light,IntelOne Text Light_MSFontService,sans-serif" font-weight="300" font-size="83" transform="matrix(1 0 0 1 1357.08 1676)">Box XAI Methods</text><rect x="3657.5" y="778.5" width="443" height="144" stroke="#00284A" stroke-width="4.58333" stroke-miterlimit="8" fill="#0068B5"/><text fill="#FFFFFF" font-family="IntelOne Text Light,IntelOne Text Light_MSFontService,sans-serif" font-weight="300" font-size="83" transform="matrix(1 0 0 1 3735.01 876)">Metrics</text><rect x="566.5" y="2048.5" width="900" height="217" stroke="#374718" stroke-width="4.58333" stroke-miterlimit="8" fill="#8BAE46"/><text fill="#FFFFFF" font-family="IntelOne Text Light,IntelOne Text Light_MSFontService,sans-serif" font-weight="300" font-size="83" transform="matrix(1 0 0 1 865.623 2183)">Pytorch</text><rect x="233.5" y="2048.5" width="333" height="217" stroke="#6C5405" stroke-width="4.58333" stroke-miterlimit="8" fill="#FEC91B"/><text fill="#FFFFFF" font-family="IntelOne Text Light,IntelOne Text Light_MSFontService,sans-serif" font-weight="300" font-size="83" transform="matrix(1 0 0 1 270.384 2183)">ONNX</text><rect x="2075.5" y="1571.5" width="231" height="77" stroke="#392342" stroke-width="4.58333" stroke-miterlimit="8" fill="#8F5DA2"/><rect x="2076.5" y="1651.5" width="231" height="77" stroke="#374718" stroke-width="4.58333" stroke-miterlimit="8" fill="#8BAE46"/></g></svg>